<svg xmlns="http://www.w3.org/2000/svg" width="94.088" height="94.088" viewBox="0 0 94.088 94.088"><defs><style>.a{stroke:#f9faf7;}</style></defs><path class="a" d="M44.894,12.513V3.075A46.486,46.486,0,0,0,20.036,13.4l6.635,6.682a37.1,37.1,0,0,1,18.223-7.569Zm34.2.888A46.486,46.486,0,0,0,54.239,3.075v9.438a37.1,37.1,0,0,1,18.223,7.569ZM86.62,44.894h9.438A46.486,46.486,0,0,0,85.732,20.036L79.05,26.671A37.1,37.1,0,0,1,86.62,44.894ZM20.083,26.671,13.4,20.036A46.486,46.486,0,0,0,3.075,44.894h9.438A37.1,37.1,0,0,1,20.083,26.671ZM12.513,54.239H3.075A46.486,46.486,0,0,0,13.4,79.1l6.682-6.682a36.763,36.763,0,0,1-7.569-18.176Zm51.071-4.673A14.018,14.018,0,1,0,49.567,63.584,14,14,0,0,0,63.584,49.567Zm15.466,22.9,6.682,6.682A46.638,46.638,0,0,0,96.058,54.286H86.62A37.125,37.125,0,0,1,79.05,72.462ZM54.239,86.62v9.438A46.486,46.486,0,0,0,79.1,85.732L72.415,79.05A36.763,36.763,0,0,1,54.239,86.62Zm-34.2-.888A46.638,46.638,0,0,0,44.894,96.058V86.62A37.1,37.1,0,0,1,26.671,79.05l-6.635,6.682Z" transform="translate(-2.523 -2.523)"/></svg>