<svg xmlns="http://www.w3.org/2000/svg" width="88.645" height="88.645" viewBox="0 0 88.645 88.645"><defs><style>.a{stroke:#f9faf7;stroke-width:3px;}</style></defs><path class="a" d="M80.659,37.806V80.629H13.951V14.016H56.773V4.5H14.046A9.544,9.544,0,0,0,4.53,14.016V80.629a9.544,9.544,0,0,0,9.516,9.516H80.659a9.544,9.544,0,0,0,9.516-9.516V37.806Zm-9.611,0L75.52,28l9.8-4.473-9.8-4.473-4.473-9.8-4.473,9.8-9.8,4.473L66.575,28ZM53.2,41.375,47.257,28.29,41.31,41.375,28.225,47.323,41.31,53.27l5.948,13.085L53.2,53.27,66.29,47.323Z" transform="translate(-3.03 -3)"/></svg>