<svg xmlns="http://www.w3.org/2000/svg" width="68.902" height="69.38" viewBox="0 0 68.902 69.38"><g transform="translate(-0.062 0.128)"><path d="M107.771,120.282c-4.5.811-7.892-.968-11.806-1.771v11.215a34.343,34.343,0,0,1-4.132,0V118.511c-4.119.669-8.1,1.6-11.806,1.771a50.347,50.347,0,0,1-10.625-.59c3.205-2.394,6.876-3.643,10.625-5.313-8.033-2.875-14.005-7.946-20.66-12.4-.181-.22-.654-.4,0-.59l19.48,4.132c-7.025-6.631-9.773-15.216-12.986-24.2-.055-.165-.268-.535,0-.59,2.985,2.174,6.216,3.949,8.854,6.493,8.443,8.144,16.483,16.507,24.792,24.792C102.011,114.522,104.707,117.281,107.771,120.282Z" transform="translate(-58.97 -60.537)"/><path d="M73.668,112.267,63.042,101.642c-.095-.087-.032-.464,0-.59l4.722-22.431c.071-.347.456-.331.59,0,2.938,7.379,6.5,27.882,5.9,33.647C74.227,112.574,73.88,112.488,73.668,112.267Z" transform="translate(-33.722 -78.495)"/><path d="M72.468,105.581,64.794,98.5c5.6-7.647,13.462-11.826,20.66-17.118.071-.063.1-.2,0,0C81.28,89.593,79.359,99.131,72.468,105.581Z" transform="translate(-22.487 -61.183)"/><path d="M83.825,84.361c-4.245,2.93-8.734,5.917-12.986,8.854-1.811-1.772-3.525-3.344-5.313-5.313,5.891-2.544,11.849-2.573,17.709-4.132C83.621,83.716,84.133,83.9,83.825,84.361Z" transform="translate(-14.955 -42.915)"/><rect width="4.385" height="67.092" rx="0.183" transform="translate(10.554 15.314) rotate(-45)"/></g></svg>