<svg xmlns="http://www.w3.org/2000/svg" width="64.347" height="69.027" viewBox="0 0 64.347 69.027"><g transform="translate(-2611.918 886.061)"><g transform="translate(2611.918 -886.061)"><path d="M2611.918-884.15c3.847,1.174,6.386,3.4,8.917,5.732,8.154,7.5,12.461,16.895,15.286,27.388,1.432,5.318,3.006,10.611,4.458,15.923.261.954.3,2.25.637,3.185h.637a9.587,9.587,0,0,0,.637-1.274c2.337-6.79,4.559-13.632,7.006-20.382,2.286-6.305,4.807-12.482,8.917-17.834.893-1.163,2.24-2.059,3.185-3.185.31-.37.772-1.181,1.274-1.911a8.477,8.477,0,0,0-5.1,1.911,28.959,28.959,0,0,0-8.28,10.828c-.73-1.817-.376-3.984,0-5.732,1.228-5.7,4.01-9.764,9.554-12.1,2.385-1.005,5.093-1.31,7.643-1.911,3.141-.739,6.139-1.769,9.554-2.548-.131.644.076.816,0,1.274-.511,3.084-1.692,6.449-1.911,9.554-.46,6.531-3.955,10.407-9.554,12.739a27.882,27.882,0,0,1-5.732,1.274,4.127,4.127,0,0,0-3.185,2.548c-1.942,4.876-4.073,9.676-5.732,14.649-2.455,7.356-3.392,14.635-4.458,22.292-.028.2-.592.44-.637.637-.878,3.872-1.14,4.5-5.1,3.822a1.962,1.962,0,0,1-1.274-1.274c-1.581-6.634-2.716-13.155-4.458-19.745a152.607,152.607,0,0,0-8.28-24.2,76.514,76.514,0,0,0-13.375-20.382C2612.322-883.13,2612.407-883.515,2611.918-884.15Z" transform="translate(-2611.918 886.061)"/></g></g></svg>